<svg xmlns="http://www.w3.org/2000/svg" width="240" height="260" viewBox="0 0 240 260" role="img" aria-labelledby="title">
<title>orangeCat astronaut</title>

<style>
  :root {
    --ink:#17213a;
    --muted:#64748b;
    --suit:#ffffff;
    --suitShade:#eef3f8;
    --trim:#9fb0c3;
    --glass:#dff4ff;
    --glassStroke:#b8c7d9;
    --blue:#58c7f7;
    --orange:#ff9f2f;
    --grayCat:#7c8795;
    --grayStripe:#626d7a;
    --orangeCat:#f59a28;
    --orangeStripe:#d97813;
    --skin:#f2c6a0;
    --shadow:#d9e2ec;
  }
  svg { overflow: visible; }
  .line { stroke:var(--ink); stroke-width:3; stroke-linecap:round; stroke-linejoin:round; fill:none; }
  .soft-line { stroke:var(--trim); stroke-width:3; stroke-linecap:round; stroke-linejoin:round; fill:none; }
  .helmet { fill:var(--glass); fill-opacity:.38; stroke:var(--glassStroke); stroke-width:3; }
  .suit { fill:var(--suit); stroke:var(--trim); stroke-width:2.5; }
  .shade { fill:var(--suitShade); }
  .panel { fill:#f8fafc; stroke:var(--trim); stroke-width:2; }
  .eye { fill:var(--ink); }
  .shine { fill:white; opacity:.85; }
  .label { font-family: Inter, ui-sans-serif, system-ui, -apple-system, BlinkMacSystemFont, "Segoe UI", sans-serif; fill:var(--ink); font-size:18px; font-weight:700; letter-spacing:.02em; }
  .float-shadow { fill:var(--shadow); opacity:.45; }
  .accent-blue { fill:var(--blue); }
  .accent-orange { fill:var(--orange); }
</style>



<circle class="helmet" cx="120" cy="82" r="61"/>
<path class="shine" d="M74 56c8-18 25-29 44-32" stroke="white" stroke-width="9" stroke-linecap="round" fill="none" opacity=".75"/>
<path class="shine" d="M80 43c8-7 20-12 31-13" stroke="white" stroke-width="6" stroke-linecap="round" fill="none" opacity=".55"/>


    <path d="M159 158c35 8 43 42 23 60-14 13-37 5-31-12 6-16 30 1 23-22-4-13-16-18-27-19" 
          fill="none" stroke="var(--orangeCat)" stroke-width="19" stroke-linecap="round"/>
    <path d="M180 191c-5-4-12-6-20-6" stroke="var(--orangeStripe)" stroke-width="4" stroke-linecap="round" opacity=".45"/>
    <path d="M178 211c-8 1-15-1-21-6" stroke="var(--orangeStripe)" stroke-width="4" stroke-linecap="round" opacity=".45"/>
    
<rect class="suit" x="78" y="125" width="84" height="90" rx="34"/>
<rect class="shade" x="88" y="161" width="64" height="53" rx="25"/>
<rect class="suit" x="89" y="198" width="25" height="37" rx="12"/>
<rect class="suit" x="126" y="198" width="25" height="37" rx="12"/>
<rect class="suit" x="64" y="128" width="25" height="62" rx="13"/>
<circle class="suit" cx="76.5" cy="193" r="13.5"/>

    <rect class="suit" x="151" y="126" width="25" height="62" rx="13"/>
    <circle class="suit" cx="163.5" cy="191" r="13.5"/>
    
<rect class="suit" x="78" y="118" width="84" height="19" rx="9"/>
<rect class="panel" x="96" y="153" width="48" height="31" rx="8"/>
<circle class="accent-blue" cx="111" cy="167" r="6"/>
<circle class="accent-orange" cx="130" cy="167" r="6"/>
<rect fill="#cbd5e1" x="107" y="176" width="26" height="4" rx="2"/>

<!-- head -->
<path d="M78 74 L84 36 L109 61 Z" fill="var(--orangeCat)" stroke="var(--orangeStripe)" stroke-width="2"/>
<path d="M162 74 L156 36 L131 61 Z" fill="var(--orangeCat)" stroke="var(--orangeStripe)" stroke-width="2"/>
<path d="M87 59 L91 45 L103 61 Z" fill="#ffb7aa" opacity=".9"/>
<path d="M153 59 L149 45 L137 61 Z" fill="#ffb7aa" opacity=".9"/>
<circle cx="120" cy="82" r="47" fill="var(--orangeCat)"/>

<path d="M106 45c1 10 1 14-2 23" stroke="var(--orangeStripe)" stroke-width="5" stroke-linecap="round" opacity=".5"/>
<path d="M120 42c0 11 0 15 0 25" stroke="var(--orangeStripe)" stroke-width="5" stroke-linecap="round" opacity=".5"/>
<path d="M134 45c-1 10-1 14 2 23" stroke="var(--orangeStripe)" stroke-width="5" stroke-linecap="round" opacity=".5"/>
<circle class="eye" cx="104" cy="82" r="7"/>
<circle class="eye" cx="136" cy="82" r="7"/>
<circle class="shine" cx="101" cy="79" r="2.5"/>
<circle class="shine" cx="133" cy="79" r="2.5"/>
<path d="M115 97q5 5 10 0" class="line" stroke-width="2.5"/>
<path d="M120 96v5" class="line" stroke-width="2.5"/>
<path d="M108 104q12 12 24 0" class="line" stroke-width="2.5"/>
<path d="M81 92h-21M83 102l-20 7M83 82l-19-7" class="soft-line" stroke="var(--orangeStripe)" stroke-width="2"/>
<path d="M159 92h21M157 102l20 7M157 82l19-7" class="soft-line" stroke="var(--orangeStripe)" stroke-width="2"/>
<path fill="#fb7185" d="M112 106q8 8 16 0q-8 17-16 0z"/>

</svg>
